<?xml version="1.0" encoding="utf-8"?>
<!-- Generator: Adobe Illustrator 14.0.0, SVG Export Plug-In  -->
<!DOCTYPE svg PUBLIC "-//W3C//DTD SVG 1.1//EN" "http://www.w3.org/Graphics/SVG/1.1/DTD/svg11.dtd" [
	<!ENTITY ns_flows "http://ns.adobe.com/Flows/1.0/">
]>
<svg version="1.1"
	 xmlns="http://www.w3.org/2000/svg" xmlns:xlink="http://www.w3.org/1999/xlink" xmlns:a="http://ns.adobe.com/AdobeSVGViewerExtensions/3.0/"
	 x="0px" y="0px" width="100px" height="100px" viewBox="-18.654 -33.588 100 100" enable-background="new -18.654 -33.588 100 100"
	 xml:space="preserve">
<defs>
</defs>
<path fill="none" stroke="#176AAE" stroke-width="6" stroke-linecap="round" stroke-miterlimit="3" d="M3,22.587
	c0,0,2.999,2.975,7.454,2.418c5.529-0.691,8.03-4.681,8.03-4.681s3.162,5.146,11.976,5.146c9.295,0,13.766-6.417,13.766-6.417
	s3.077,4.681,7.32,5.952c5.052,1.513,8.148-2.478,8.148-2.478"/>
<path fill="none" stroke="#176AAE" stroke-width="6" stroke-linecap="round" stroke-miterlimit="3" d="M3,8.886
	c0,0,2.999,2.975,7.454,2.418c5.529-0.691,8.03-4.681,8.03-4.681s3.162,5.146,11.976,5.146c9.295,0,13.766-6.417,13.766-6.417
	s3.077,4.681,7.32,5.952c5.052,1.513,8.148-2.478,8.148-2.478"/>
</svg>
