<?xml version="1.0" encoding="utf-8"?>
<!-- Generator: Adobe Illustrator 14.0.0, SVG Export Plug-In  -->
<!DOCTYPE svg PUBLIC "-//W3C//DTD SVG 1.1//EN" "http://www.w3.org/Graphics/SVG/1.1/DTD/svg11.dtd" [
	<!ENTITY ns_flows "http://ns.adobe.com/Flows/1.0/">
]>
<svg version="1.1"
	 xmlns="http://www.w3.org/2000/svg" xmlns:xlink="http://www.w3.org/1999/xlink" xmlns:a="http://ns.adobe.com/AdobeSVGViewerExtensions/3.0/"
	 x="0px" y="0px" width="100px" height="100px" viewBox="-16.431 -24.255 100 100" enable-background="new -16.431 -24.255 100 100"
	 xml:space="preserve">
<defs>
</defs>
<path fill="none" stroke="#176AAE" stroke-width="6" stroke-linecap="round" stroke-miterlimit="3" d="M3,43.028
	c0,0,3.234,3.208,8.039,2.608c5.962-0.746,8.659-5.048,8.659-5.048s3.411,5.55,12.915,5.55c10.024,0,14.845-6.92,14.845-6.92
	s3.318,5.048,7.893,6.418c5.449,1.632,8.787-2.672,8.787-2.672"/>
<path fill="none" stroke="#176AAE" stroke-width="6" stroke-linecap="round" stroke-miterlimit="3" d="M3,26.096
	c0,0,3.234,3.208,8.039,2.608c5.962-0.746,8.659-5.048,8.659-5.048s3.411,5.55,12.915,5.55c10.024,0,14.845-6.921,14.845-6.921
	s3.318,5.048,7.893,6.419c5.449,1.632,8.787-2.672,8.787-2.672"/>
<path fill="none" stroke="#176AAE" stroke-width="6" stroke-linecap="round" stroke-miterlimit="3" d="M3,9.163
	c0,0,3.234,3.208,8.039,2.608c5.962-0.746,8.659-5.048,8.659-5.048s3.411,5.55,12.915,5.55c10.024,0,14.845-6.92,14.845-6.92
	s3.318,5.048,7.893,6.419c5.449,1.631,8.787-2.672,8.787-2.672"/>
</svg>
