<?xml version="1.0" encoding="utf-8"?>
<!-- Generator: Adobe Illustrator 14.0.0, SVG Export Plug-In  -->
<!DOCTYPE svg PUBLIC "-//W3C//DTD SVG 1.1//EN" "http://www.w3.org/Graphics/SVG/1.1/DTD/svg11.dtd" [
	<!ENTITY ns_flows "http://ns.adobe.com/Flows/1.0/">
]>
<svg version="1.1"
	 xmlns="http://www.w3.org/2000/svg" xmlns:xlink="http://www.w3.org/1999/xlink" xmlns:a="http://ns.adobe.com/AdobeSVGViewerExtensions/3.0/"
	 x="0px" y="0px" width="100px" height="100px" viewBox="-18.653 -29.996 100 100" enable-background="new -18.653 -29.996 100 100"
	 xml:space="preserve">
<defs>
</defs>
<path fill="none" stroke="#225FA4" stroke-width="6" stroke-linecap="round" d="M3,9.929C9.078,9.929,9.201,3,17.202,3
	c8.138,0,8.138,6.929,14.25,6.929h-0.188c6.078,0,6.174-6.912,14.177-6.912c8.137,0,8.137,6.927,14.252,6.927"/>
<path fill="none" stroke="#225FA4" stroke-width="6" stroke-linecap="round" d="M3,21.459c6.078,0,6.201-6.927,14.202-6.927
	c8.138,0,8.138,6.927,14.25,6.927h-0.188c6.078,0,6.174-6.911,14.177-6.911c8.137,0,8.137,6.927,14.252,6.927"/>
<path fill="none" stroke="#225FA4" stroke-width="6" stroke-linecap="round" d="M3,32.991c6.078,0,6.201-6.927,14.202-6.927
	c8.138,0,8.138,6.927,14.25,6.927h-0.188c6.078,0,6.174-6.912,14.177-6.912c8.137,0,8.137,6.929,14.252,6.929"/>
</svg>
